<?xml version="1.0" encoding="UTF-8"?>
<svg id="Capa_2" data-name="Capa 2" xmlns="http://www.w3.org/2000/svg" xmlns:xlink="http://www.w3.org/1999/xlink" viewBox="0 0 734.42 277.82">
  <defs>
    <style>
      .cls-1 {
        fill: url(#Degradado_sin_nombre_6);
      }
    </style>
    <linearGradient id="Degradado_sin_nombre_6" data-name="Degradado sin nombre 6" x1="334.88" y1="-49.97" x2="380.88" y2="290.7" gradientUnits="userSpaceOnUse">
      <stop offset=".01" stop-color="#a31e8f"/>
      <stop offset="1" stop-color="#000"/>
    </linearGradient>
  </defs>
  <g id="Capa_1-2" data-name="Capa 1">
    <path class="cls-1" d="M108.89,122.13v54.21l-25.25,.23,25.25,25.25v75.99H63.02v-69.76l-17.14-17.47v66.16H0V94.1H74.21l34.68,28.03Zm-45.87,37.53v-25.95h-17.14v25.95h17.14Zm170.98,97.07H125.11V94.1h108.89v39.62h-63.02v25.95h24.33v28.26h-24.33v29.19h63.02v39.62Zm125.34,0h-45.87v-68.81h-17.38v68.81h-45.87v-109.12l34.75-53.52h74.37v162.64Zm-45.87-97.07v-33.36l-17.38,33.36h17.38Zm170.98,62.79l-34.75,34.29h-74.37V94.1h74.37l34.75,53.52v74.83Zm-45.87-5.33v-83.4h-17.38v83.4h17.38Zm170.75,39.62h-108.89V94.1h108.89v39.62h-63.02v25.95h24.33v28.26h-24.33v29.19h63.02v39.62Zm125.11-134.61v54.21l-25.25,.23,25.25,25.25v75.99h-45.87v-69.76l-17.14-17.47v66.16h-45.87V94.1h74.21l34.68,28.03Zm-45.87,37.53v-25.95h-17.14v25.95h17.14ZM40.17,14.62h-11.28v53.16H11.97V14.62H0V0H40.17V14.62ZM46.15,0h17.01V32.74h6.33V0h16.92V45.39h6.33V0h17.01V60h-27.44l-12.82-12.65h-23.33V0ZM115.73,0h16.92V13.08h-16.92V0Zm16.92,60h-16.92V19.4h16.92V60ZM155.56,0V7.35h23.25v10.43h-23.25v27.61h6.33V24.19h17.01l-.09,35.81h-27.35l-12.82-19.74V0h16.92Zm69.49,0V24.36h-16.92V14.62h-6.41V46.92h6.41V28.46h16.92v18.89l-12.82,12.65h-27.44V19.74L197.61,0h27.44Zm5.9,0h16.92V24.19h6.33V0h16.92V60h-16.92v-25.38h-6.33v33.16h-16.92V0Z"/>
  </g>
</svg>